<svg width="50" height="50" viewBox="0 0 50 50" fill="none" xmlns="http://www.w3.org/2000/svg">
<path d="M20.3125 25C19.8981 25 19.5007 25.1646 19.2076 25.4576C18.9146 25.7507 18.75 26.1481 18.75 26.5625C18.75 26.9769 18.9146 27.3743 19.2076 27.6674C19.5007 27.9604 19.8981 28.125 20.3125 28.125H29.6875C30.1019 28.125 30.4993 27.9604 30.7924 27.6674C31.0854 27.3743 31.25 26.9769 31.25 26.5625C31.25 26.1481 31.0854 25.7507 30.7924 25.4576C30.4993 25.1646 30.1019 25 29.6875 25H20.3125ZM3.125 10.9375C3.125 9.6943 3.61886 8.50201 4.49794 7.62294C5.37701 6.74386 6.5693 6.25 7.8125 6.25H42.1875C43.4307 6.25 44.623 6.74386 45.5021 7.62294C46.3811 8.50201 46.875 9.6943 46.875 10.9375V14.0625C46.8755 15.0323 46.5752 15.9783 46.0155 16.7703C45.4558 17.5622 44.6643 18.1611 43.75 18.4844V35.9375C43.75 38.0095 42.9269 39.9966 41.4618 41.4618C39.9966 42.9269 38.0095 43.75 35.9375 43.75H14.0625C11.9905 43.75 10.0034 42.9269 8.53823 41.4618C7.0731 39.9966 6.25 38.0095 6.25 35.9375V18.4844C5.33569 18.1611 4.54415 17.5622 3.98446 16.7703C3.42477 15.9783 3.12449 15.0323 3.125 14.0625V10.9375ZM7.8125 9.375C7.3981 9.375 7.00067 9.53962 6.70765 9.83265C6.41462 10.1257 6.25 10.5231 6.25 10.9375V14.0625C6.25 14.4769 6.41462 14.8743 6.70765 15.1674C7.00067 15.4604 7.3981 15.625 7.8125 15.625H42.1875C42.6019 15.625 42.9993 15.4604 43.2924 15.1674C43.5854 14.8743 43.75 14.4769 43.75 14.0625V10.9375C43.75 10.5231 43.5854 10.1257 43.2924 9.83265C42.9993 9.53962 42.6019 9.375 42.1875 9.375H7.8125ZM9.375 18.75V35.9375C9.375 37.1807 9.86886 38.373 10.7479 39.2521C11.627 40.1311 12.8193 40.625 14.0625 40.625H35.9375C37.1807 40.625 38.373 40.1311 39.2521 39.2521C40.1311 38.373 40.625 37.1807 40.625 35.9375V18.75H9.375Z" fill="black"/>
</svg>
