<svg width="60" height="60" viewBox="0 0 60 60" fill="none" xmlns="http://www.w3.org/2000/svg">
<path d="M54.265 13.23L46.7675 5.7325C46.5357 5.4999 46.2603 5.31543 45.9569 5.18971C45.6536 5.064 45.3284 4.99953 45 5H15C14.6716 4.99953 14.3464 5.064 14.0431 5.18971C13.7398 5.31543 13.4643 5.4999 13.2325 5.7325L5.73501 13.23C5.50143 13.4617 5.31618 13.7375 5.19 14.0413C5.06383 14.3451 4.99925 14.671 5.00001 15V47.5C5.00001 50.2575 7.24251 52.5 10 52.5H50C52.7575 52.5 55 50.2575 55 47.5V15C55.0008 14.671 54.9362 14.3451 54.81 14.0413C54.6838 13.7375 54.4986 13.4617 54.265 13.23ZM16.035 10H43.965L46.465 12.5H13.535L16.035 10ZM10 47.5V17.5H50L50.005 47.5H10Z" fill="white"/>
<path d="M35 22.5H25V30H17.5L30 42.5L42.5 30H35V22.5Z" fill="white"/>
</svg>
