<svg width="60" height="60" viewBox="0 0 60 60" fill="none" xmlns="http://www.w3.org/2000/svg">
<path d="M12.5 50C12.5 51.3261 13.0268 52.5979 13.9645 53.5355C14.9021 54.4732 16.1739 55 17.5 55H42.5C43.8261 55 45.0979 54.4732 46.0355 53.5355C46.9732 52.5979 47.5 51.3261 47.5 50V20H52.5V15H42.5V10C42.5 8.67392 41.9732 7.40215 41.0355 6.46447C40.0979 5.52678 38.8261 5 37.5 5H22.5C21.1739 5 19.9021 5.52678 18.9645 6.46447C18.0268 7.40215 17.5 8.67392 17.5 10V15H7.5V20H12.5V50ZM22.5 10H37.5V15H22.5V10ZM20 20H42.5V50H17.5V20H20Z" fill="white"/>
<path d="M22.5 25H27.5V45H22.5V25ZM32.5 25H37.5V45H32.5V25Z" fill="white"/>
</svg>
