<svg width="50" height="50" viewBox="0 0 50 50" fill="none" xmlns="http://www.w3.org/2000/svg">
<path d="M41.6667 29.1667C41.475 29.3 37.5 33.5063 37.5 36.4583C37.5 39.5708 39.4771 41.5583 41.6667 41.6667C43.5542 41.7583 45.8333 39.8104 45.8333 36.4583C45.8333 33.3333 41.8583 29.3 41.6667 29.1667ZM19.9708 41.6667C20.7583 42.4542 21.8042 42.8875 22.9167 42.8875C24.0292 42.8875 25.075 42.4542 25.8625 41.6667L40.4458 27.0833L38.9729 25.6104L22.9167 9.55417L18.1396 4.77708L15.1937 7.72292L19.9708 12.5L8.33332 24.1375C7.54582 24.925 7.11249 25.9708 7.11249 27.0833C7.11249 28.1958 7.54582 29.2417 8.33332 30.0292L19.9708 41.6667ZM22.9167 15.4458L34.5542 27.0833H11.2792L22.9167 15.4458Z" fill="black"/>
</svg>
