<svg width="60" height="60" viewBox="0 0 60 60" fill="none" xmlns="http://www.w3.org/2000/svg">
<path d="M30 7.5C24.0326 7.5 18.3097 9.87053 14.0901 14.0901C9.87053 18.3097 7.5 24.0326 7.5 30C7.5 35.9674 9.87053 41.6903 14.0901 45.9099C18.3097 50.1295 24.0326 52.5 30 52.5C32.075 52.5 33.75 50.825 33.75 48.75C33.75 47.775 33.375 46.9 32.775 46.225C32.2 45.575 31.825 44.7 31.825 43.75C31.825 41.675 33.5 40 35.575 40H40C46.9 40 52.5 34.4 52.5 27.5C52.5 16.45 42.425 7.5 30 7.5ZM16.25 30C14.175 30 12.5 28.325 12.5 26.25C12.5 24.175 14.175 22.5 16.25 22.5C18.325 22.5 20 24.175 20 26.25C20 28.325 18.325 30 16.25 30ZM23.75 20C21.675 20 20 18.325 20 16.25C20 14.175 21.675 12.5 23.75 12.5C25.825 12.5 27.5 14.175 27.5 16.25C27.5 18.325 25.825 20 23.75 20ZM36.25 20C34.175 20 32.5 18.325 32.5 16.25C32.5 14.175 34.175 12.5 36.25 12.5C38.325 12.5 40 14.175 40 16.25C40 18.325 38.325 20 36.25 20ZM43.75 30C41.675 30 40 28.325 40 26.25C40 24.175 41.675 22.5 43.75 22.5C45.825 22.5 47.5 24.175 47.5 26.25C47.5 28.325 45.825 30 43.75 30Z" fill="white"/>
</svg>
