<svg width="50" height="50" viewBox="0 0 50 50" fill="none" xmlns="http://www.w3.org/2000/svg">
<path d="M10.4167 41.6667C10.4167 42.7717 10.8557 43.8316 11.6371 44.613C12.4185 45.3944 13.4783 45.8333 14.5833 45.8333H35.4167C36.5217 45.8333 37.5815 45.3944 38.3629 44.613C39.1443 43.8316 39.5833 42.7717 39.5833 41.6667V16.6667H43.75V12.5H35.4167V8.33334C35.4167 7.22827 34.9777 6.16846 34.1963 5.38706C33.4149 4.60566 32.3551 4.16667 31.25 4.16667H18.75C17.6449 4.16667 16.5851 4.60566 15.8037 5.38706C15.0223 6.16846 14.5833 7.22827 14.5833 8.33334V12.5H6.25V16.6667H10.4167V41.6667ZM18.75 8.33334H31.25V12.5H18.75V8.33334ZM16.6667 16.6667H35.4167V41.6667H14.5833V16.6667H16.6667Z" fill="black"/>
<path d="M18.75 20.8333H22.9167V37.5H18.75V20.8333ZM27.0833 20.8333H31.25V37.5H27.0833V20.8333Z" fill="black"/>
</svg>
